<?xml version="1.0" encoding="UTF-8" standalone="no"?><!DOCTYPE svg PUBLIC "-//W3C//DTD SVG 1.1//EN" "http://www.w3.org/Graphics/SVG/1.1/DTD/svg11.dtd"><svg width="100%" height="100%" viewBox="0 0 6946 6946" version="1.1" xmlns="http://www.w3.org/2000/svg" xmlns:xlink="http://www.w3.org/1999/xlink" xml:space="preserve" xmlns:serif="http://www.serif.com/" style="fill-rule:evenodd;clip-rule:evenodd;stroke-linejoin:round;stroke-miterlimit:2;"><path d="M3472.92,0c1916.76,0 3472.92,1556.16 3472.92,3472.92c0,1916.76 -1556.16,3472.92 -3472.92,3472.92c-1916.76,0 -3472.92,-1556.16 -3472.92,-3472.92c-0,-1916.76 1556.16,-3472.92 3472.92,-3472.92Zm-0,1432.66l1277.43,1813.56c-0,0 -648.886,-318.213 -754.844,0c-125.807,377.826 174.195,1889.13 -0,2266.95c-174.195,377.825 -870.974,377.825 -1045.17,-0c-174.194,-377.826 125.808,-1889.13 0,-2266.95c-105.957,-318.213 -754.844,0 -754.844,0l1277.43,-1813.56Z"/></svg>