<?xml version="1.0" encoding="UTF-8" standalone="no"?><!DOCTYPE svg PUBLIC "-//W3C//DTD SVG 1.1//EN" "http://www.w3.org/Graphics/SVG/1.1/DTD/svg11.dtd"><svg width="100%" height="100%" viewBox="0 0 1667 1667" version="1.1" xmlns="http://www.w3.org/2000/svg" xmlns:xlink="http://www.w3.org/1999/xlink" xml:space="preserve" xmlns:serif="http://www.serif.com/" style="fill-rule:evenodd;clip-rule:evenodd;stroke-linejoin:round;stroke-miterlimit:2;"><rect id="Artboard1" x="0" y="0" width="1666.67" height="1666.67" style="fill:none;"/><path d="M833.333,20.547c-460.139,0 -833.333,373.125 -833.333,833.334c0,368.194 238.75,680.555 569.931,790.764c41.597,7.708 55.069,-18.125 55.069,-40.07l0,-155.139c-231.806,50.417 -280.069,-98.333 -280.069,-98.333c-37.917,-96.319 -92.57,-121.944 -92.57,-121.944c-75.625,-51.737 5.764,-50.625 5.764,-50.625c83.681,5.833 127.708,85.902 127.708,85.902c74.306,127.361 194.931,90.556 242.5,69.236c7.431,-53.819 29.028,-90.625 52.917,-111.388c-185.069,-21.181 -379.653,-92.639 -379.653,-411.875c0,-91.042 32.57,-165.348 85.834,-223.681c-8.612,-21.042 -37.153,-105.833 8.125,-220.556c-0,0 70,-22.361 229.236,85.417c66.458,-18.472 137.708,-27.708 208.541,-28.055c70.834,0.347 142.153,9.583 208.75,28.055c159.098,-107.778 228.959,-85.417 228.959,-85.417c45.347,114.792 16.805,199.584 8.194,220.556c53.472,58.333 85.764,132.708 85.764,223.681c-0,320.069 -194.931,390.555 -380.486,411.18c29.861,25.833 57.153,76.528 57.153,154.306l-0,228.68c-0,22.153 13.333,48.195 55.625,40c330.902,-110.347 569.375,-422.639 569.375,-790.694c-0,-460.209 -373.125,-833.334 -833.334,-833.334Z" style="fill-rule:nonzero;"/></svg>