<?xml version="1.0" encoding="UTF-8" standalone="no"?><!DOCTYPE svg PUBLIC "-//W3C//DTD SVG 1.1//EN" "http://www.w3.org/Graphics/SVG/1.1/DTD/svg11.dtd"><svg width="100%" height="100%" viewBox="0 0 6946 6946" version="1.1" xmlns="http://www.w3.org/2000/svg" xmlns:xlink="http://www.w3.org/1999/xlink" xml:space="preserve" xmlns:serif="http://www.serif.com/" style="fill-rule:evenodd;clip-rule:evenodd;stroke-linejoin:round;stroke-miterlimit:2;"><path d="M3472.92,0c1916.76,0 3472.92,1556.16 3472.92,3472.92c0,1916.76 -1556.16,3472.92 -3472.92,3472.92c-1916.76,0 -3472.92,-1556.16 -3472.92,-3472.92c-0,-1916.76 1556.16,-3472.92 3472.92,-3472.92Zm-1085.93,4004.22c-0,434.721 -0.719,869.496 1.03,1304.27c0.204,48.304 -11.834,62.913 -61.833,62.348c-246.963,-2.725 -494.033,-2.056 -741.05,-0.361c-39.557,0.308 -51.49,-9.62 -51.44,-50.514c1.184,-880.247 1.08,-1760.49 0.207,-2640.74c-0.053,-36.421 8.797,-49.384 47.478,-49.177c250.568,1.645 501.186,2.11 751.75,-0.257c48.147,-0.515 54.734,18.21 54.63,59.465c-1.183,438.323 -0.772,876.646 -0.772,1314.97Zm1353.91,-1004.32c56.994,-64.043 104.011,-129.116 162.603,-184.311c180.042,-169.702 393.056,-255.349 641.717,-253.239c136.68,1.13 271.811,11.007 403.552,49.123c301.389,87.141 476.542,294.601 560.029,588.992c62.655,220.782 74.177,447.482 74.589,674.847c0.822,479.682 -1.388,959.31 -0.361,1438.99c0.103,44.907 -12.449,56.687 -56.687,56.276c-247.067,-2.007 -494.237,-2.057 -741.307,0.103c-43.466,0.358 -52.879,-13.117 -52.725,-54.169c1.388,-456.429 1.696,-912.808 0.258,-1369.24c-0.412,-114.353 -7.664,-228.652 -39.764,-339.866c-59.105,-204.835 -205.711,-309.207 -420.32,-297.891c-293.054,15.484 -445.422,160.597 -482.768,458.539c-8.949,71.195 -13.168,142.387 -13.118,214.094c0.414,443.88 -0.462,887.757 1.184,1331.59c0.154,44.288 -10.904,57.355 -56.122,56.944c-248.866,-2.213 -497.838,-1.956 -746.707,-0.207c-39.865,0.308 -51.441,-10.443 -51.387,-50.822c1.13,-878.756 1.13,-1757.56 -0.054,-2636.37c-0.05,-43.465 14.198,-53.547 55.299,-53.239c236.37,1.749 472.787,1.956 709.104,-0.154c43.519,-0.361 54.734,13.683 53.757,54.888c-2.417,104.987 -0.772,210.081 -0.772,315.122Zm-1285.75,-1242.13c0.204,272.944 -221.347,495.32 -493.622,495.424c-268.878,0.103 -492.284,-222.48 -493.157,-491.205c-0.926,-271.656 222.376,-495.37 494.133,-495.113c269.908,0.257 492.338,221.915 492.646,490.894Z"/></svg>