<?xml version="1.0" encoding="UTF-8" standalone="no"?><!DOCTYPE svg PUBLIC "-//W3C//DTD SVG 1.1//EN" "http://www.w3.org/Graphics/SVG/1.1/DTD/svg11.dtd"><svg width="100%" height="100%" viewBox="0 0 1667 1667" version="1.1" xmlns="http://www.w3.org/2000/svg" xmlns:xlink="http://www.w3.org/1999/xlink" xml:space="preserve" xmlns:serif="http://www.serif.com/" style="fill-rule:evenodd;clip-rule:evenodd;stroke-linejoin:round;stroke-miterlimit:2;"><rect id="Artboard1" x="0" y="0" width="1666.67" height="1666.67" style="fill:none;"/><clipPath id="_clip1"><rect x="0" y="0" width="1666.67" height="1666.67"/></clipPath><g clip-path="url(#_clip1)"><path d="M833.333,-0c459.93,-0 833.334,373.404 833.334,833.333c-0,459.93 -373.404,833.334 -833.334,833.334c-459.929,-0 -833.333,-373.404 -833.333,-833.334c0,-459.929 373.404,-833.333 833.333,-833.333Zm-258.105,687.587c19.496,-19.496 41.124,-35.572 64.128,-48.273c128.21,-70.655 292.613,-33.085 375.037,91.883l-99.743,99.699c-28.6,-65.237 -99.611,-102.363 -170.266,-86.554c-26.601,5.951 -51.87,19.23 -72.521,39.88l-191.138,191.227c-58.043,58.043 -58.043,152.458 0,210.501c58.043,58.043 152.458,58.043 210.501,-0l58.931,-58.932c53.602,21.273 111.068,29.755 167.823,25.536l-130.075,130.075c-111.512,111.512 -292.303,111.512 -403.815,0c-111.512,-111.512 -111.512,-292.303 0,-403.815l191.138,-191.227Zm303.583,-303.583l-130.075,130.075c56.711,-4.263 114.221,4.264 167.823,25.491l58.887,-58.886c58.043,-58.044 152.458,-58.044 210.501,-0c58.043,58.043 58.043,152.457 0,210.5l-191.183,191.183c-58.22,58.221 -152.768,57.732 -210.5,-0c-13.456,-13.456 -25.047,-30.199 -32.286,-46.674l-99.744,99.699c10.481,15.898 21.361,29.621 35.35,43.61c36.061,36.06 81.98,62.928 134.827,75.674c68.48,16.475 141.844,7.371 204.861,-27.401c23.004,-12.701 44.632,-28.777 64.127,-48.273l191.139,-191.183c111.556,-111.512 111.556,-292.303 0.044,-403.815c-111.512,-111.467 -292.259,-111.467 -403.771,0Z"/></g></svg>