<?xml version="1.0" encoding="UTF-8" standalone="no"?><!DOCTYPE svg PUBLIC "-//W3C//DTD SVG 1.1//EN" "http://www.w3.org/Graphics/SVG/1.1/DTD/svg11.dtd"><svg width="100%" height="100%" viewBox="0 0 982 982" version="1.1" xmlns="http://www.w3.org/2000/svg" xmlns:xlink="http://www.w3.org/1999/xlink" xml:space="preserve" xmlns:serif="http://www.serif.com/" style="fill-rule:evenodd;clip-rule:evenodd;stroke-linejoin:round;stroke-miterlimit:2;"><rect id="Artboard4" x="0" y="0" width="981.983" height="981.983" style="fill:none;"/><clipPath id="_clip1"><rect x="0" y="0" width="981.983" height="981.983"/></clipPath><g clip-path="url(#_clip1)"><path d="M985.343,490.992c0,-164.784 -494.351,-494.352 -494.351,-494.352l-494.352,494.352l494.352,494.351c-0,0 494.351,-329.568 494.351,-494.351Z" style="fill:#030000;fill-opacity:0.9;"/><path d="M363.044,968.499l605.455,-349.56l-349.56,-605.454l-605.454,349.559l349.559,605.455Z" style="fill-opacity:0.15;"/><path d="M13.485,618.939l605.454,349.56l349.56,-605.455l-605.455,-349.559l-349.559,605.454Z" style="fill-opacity:0.15;"/><path d="M172.474,951.554l61.028,-446.723l-33.35,-452.259l609.358,-22.142l-27.679,233.761l-351.78,-0l-0,172.169l237.225,-60.892l22.142,178.405l-259.367,5.536l-0,309.11l-257.577,83.035Z" style="fill:#fff;fill-rule:nonzero;stroke:#000;stroke-width:20.83px;"/></g></svg>