<?xml version="1.0" encoding="UTF-8" standalone="no"?><!DOCTYPE svg PUBLIC "-//W3C//DTD SVG 1.1//EN" "http://www.w3.org/Graphics/SVG/1.1/DTD/svg11.dtd"><svg width="100%" height="100%" viewBox="0 0 19688 19688" version="1.1" xmlns="http://www.w3.org/2000/svg" xmlns:xlink="http://www.w3.org/1999/xlink" xml:space="preserve" xmlns:serif="http://www.serif.com/" style="fill-rule:evenodd;clip-rule:evenodd;stroke-linejoin:round;stroke-miterlimit:2;"><rect x="0" y="0" width="19687.5" height="19687.5" style="fill:#ebebeb;"/><rect id="Artboard2" x="0" y="0" width="19685" height="19685" style="fill:none;"/><path d="M19685,0l-19685,0l0,19685l19685,-0l-0,-19685Zm-173.609,173.613l0,19337.8l-19337.8,-0l-0,-19337.8l19337.8,-0Z"/><path d="M11150,6726.92c55.358,-325.259 177.237,-635.896 365.646,-931.963c266.787,-419.237 665.7,-747.004 1196.73,-983.304c531.038,-236.296 1200.55,-354.446 2008.53,-354.446c257.029,0 525.495,11.125 805.37,33.375l-6.066,2.692c-251.342,111.758 -501.734,225.641 -751.05,341.846c-496.05,231.208 -987.93,471.358 -1475.24,720.454c-477.567,244.112 -950.742,496.821 -1419.15,758.071c-236.767,132.05 -472.271,266.341 -706.592,402.687l-18.179,10.588Z" style="fill-rule:nonzero;"/><path d="M2342.37,13499.8c23.392,-319.096 41.479,-604.442 54.262,-855.942c56.296,-1011.25 115.13,-2459.53 176.509,-4344.83c46.05,-1392.38 69.079,-2375.68 69.079,-2949.91l-0,-708.892c1457.8,10.162 2732.79,15.242 3824.95,15.242l2133.35,-7.621l1272.48,-7.621c-55.896,757.167 -86.387,1305.99 -91.471,1646.46l-1090.02,-38.112l-442.109,-7.625l-1753.18,-0l-1577.86,7.625l-92.304,2736.48l1296.07,22.867c668.959,-0 1175.32,-1.171 1519.1,-3.508l-3.616,2.599c-349.721,251.93 -695.809,508.884 -1037.93,771.034c-342.362,262.325 -680.725,529.833 -1015.21,802.133l-2.688,2.192c-274.116,4.775 -555.729,10.992 -844.925,18.654l-17.358,702.458c-815.704,700.125 -1608.11,1432.31 -2377.13,2196.32l-0,-0.004Z" style="fill-rule:nonzero;"/><path d="M15526.3,4490.58c1343.95,-596.921 2730.01,-1135.5 4158.75,-1615.69l-0,16810.1l-19685,-0l0,-3676.93c755.275,-871.159 1536.09,-1707.37 2342.37,-2508.38c-32.863,448.358 -76.192,963.379 -129.988,1545.15c783.213,-10.163 1205.35,-15.246 1266.41,-15.246l1167.19,15.246l0.001,-388.75l7.624,-686.025l65.892,-2666.7c284.754,-244.408 572.359,-484.921 862.284,-721.113c452.745,-7.887 884.87,-11.833 1296.29,-11.833c523.254,0 1226.83,10.163 2110.72,30.488c10.163,-487.838 33.029,-1026.5 68.6,-1615.97l-1036.9,15.246c-89.883,1.633 -216.308,3.004 -379.267,4.112c1129.88,-813.333 2299.4,-1572.55 3508.79,-2277.45c-23.025,135.279 -34.542,273.1 -34.542,413.442c0,259.167 35.571,503.087 106.717,731.762c71.141,228.675 188.021,458.621 350.633,689.838c162.617,231.217 396.371,491.65 701.275,781.308c135.217,132.121 380.567,353.175 736.046,663.159c746.054,640.291 1264.31,1100.18 1554.76,1379.67c226.688,203.266 388.588,398.912 485.696,586.933c64.792,137.204 97.188,292.196 97.188,464.975c-0,223.592 -67.334,425.587 -201.996,605.987c-134.667,180.4 -343.017,320.146 -625.05,419.242c-282.029,99.092 -585.663,148.637 -910.888,148.637c-813.071,0 -1717.61,-226.133 -2713.62,-678.404c66.062,487.842 119.42,1117.97 160.07,1890.38c706.355,157.533 1275.51,264.245 1707.45,320.146c431.942,55.899 810.525,83.845 1135.75,83.845c492.921,0 960.438,-47.004 1402.54,-141.012c442.108,-94.013 848.642,-262.979 1219.6,-506.9c370.963,-243.921 655.538,-555.171 853.721,-933.758c198.188,-378.584 297.279,-781.309 297.279,-1208.17c0,-182.942 -19.016,-356.988 -57.05,-522.142c-38.033,-165.158 -95.104,-326.5 -171.208,-484.033c-76.108,-157.529 -181.354,-322.683 -315.738,-495.463c-134.387,-172.775 -295.433,-353.175 -483.137,-541.2c-187.704,-188.02 -400.738,-381.125 -639.1,-579.308l-940.55,-853.721c-154.671,-111.8 -341.146,-257.896 -559.421,-438.296c-218.271,-180.4 -384.042,-337.933 -497.308,-472.596c-113.267,-134.666 -191.992,-243.92 -236.179,-327.77c-44.188,-83.846 -77.338,-170.234 -99.45,-259.163c-22.113,-88.929 -33.171,-174.05 -33.171,-255.354c-0,-299.821 158.487,-562.796 475.454,-788.933c316.971,-226.134 723.983,-339.2 1221.03,-339.2c669.513,-0 1399.84,152.45 2191,457.35c-76.225,-680.946 -127.041,-1285.66 -152.45,-1814.16c-587.887,-114.95 -1137.57,-192.754 -1649.09,-233.416l0.004,0.016Z"/></svg>